PathFileType	4	(X/Y/Z)	19_2_76_p0_0-385_filt_butterworth.trc
DataRate	CameraRate	NumFrames	NumMarkers	Units	OrigDataRate	OrigDataStartFrame	OrigNumFrames
60.0	60.0	5	27	m	60.0	336	385
Frame#	Time	RHip			RKnee			RAnkle			RBigToe			RSmallToe			RHeel			LHip			LKnee			LAnkle			LBigToe			LSmallToe			LHeel			Neck			Head			Nose			RShoulder			RElbow			RWrist			RThumb			RIndex			RPinky			LShoulder			LElbow			LWrist			LThumb			LIndex			LPinky			
		X1	Y1	Z1	X2	Y2	Z2	X3	Y3	Z3	X4	Y4	Z4	X5	Y5	Z5	X6	Y6	Z6	X7	Y7	Z7	X8	Y8	Z8	X9	Y9	Z9	X10	Y10	Z10	X11	Y11	Z11	X12	Y12	Z12	X13	Y13	Z13	X14	Y14	Z14	X15	Y15	Z15	X16	Y16	Z16	X17	Y17	Z17	X18	Y18	Z18	X19	Y19	Z19	X20	Y20	Z20	X21	Y21	Z21	X22	Y22	Z22	X23	Y23	Z23	X24	Y24	Z24	X25	Y25	Z25	X26	Y26	Z26	X27	Y27	Z27	
336	5.6	0.30852960183609174	0.5019031470329132	0.8582268059326629	0.2772654094079394	0.5443464498787378	1.2973096890626985	0.26863132664120304	0.5892986058019163	1.735339896660102	0.2649079505718239	0.39789527415521597	1.7571501869578883	0.3294789775571444	0.43156941634601725	1.7614588397990496	0.23794488241487413	0.6510010768324016	1.809632553975695	0.08629829824575722	0.5039671194203051	0.8715796513407034	0.08623449497735701	0.5345792189942584	1.3012913338909302	0.09120490217839043	0.5528220585583917	1.735818889151254	0.11890970436869697	0.37512864942038154	1.747652784174415	0.06485982894632415	0.39399343024077693	1.7407423542658618	0.11646766118702845	0.6130724236767863	1.8030409193733261	0.19064869197227388	0.5300561805621655	0.3201445311912398	0.19464049624576674	0.4081386206870955	0.055372398236603726	0.17392247197377375	0.3919493642805574	0.21222885402166008	0.3401501675563498	0.5391755036922412	0.39814900579533613	0.3887014271263927	0.6048259891636417	0.6431639249224577	0.4504785352830809	0.6180875951602269	0.8812460275585585	0.4388584326172481	0.6227529116666611	1.001159656579672	0.4570456630023253	0.6546322185883997	1.0243426021028386	0.4160699898590383	0.6502439291005264	1.0364048608501997	0.029241720541692436	0.49563433271902213	0.3816720512131357	-0.041773576548034666	0.5542079157087059	0.6360086743134257	-0.06535312664933401	0.5559027538361098	0.8439175643440282	-0.039521803086765936	0.5260387816777019	0.9275850220522711	-0.051396868834266154	0.5429565974625934	0.9548995725900336	-0.06507379326186707	0.5637887022171957	0.9534302341976799
337	5.616666666666666	0.30501716545955904	0.5083294021816234	0.8605909267515829	0.27460835240190345	0.5369432177084131	1.293869909698785	0.26879647879167884	0.5896187320323756	1.7380930609938996	0.2649380380787329	0.39784046901520737	1.7570795818252183	0.3305361590139158	0.4273468350305272	1.7584583954558197	0.23805470708162813	0.65141228400819	1.8102900907997919	0.08322564329349687	0.5080408909649422	0.8737408153280002	0.08633318454340655	0.5341928062242997	1.3012652019809738	0.09119539911677761	0.5530081048337608	1.7356491941223955	0.12033353981332912	0.37211639208905334	1.7454479542935046	0.06369264634148827	0.3936394154846347	1.7405697474415196	0.11649414014724468	0.612994092500735	1.8036412743537094	0.19042540329101754	0.5302091049535768	0.32050835596823013	0.19416168168185352	0.4094540319796896	0.05576200700553335	0.17322497871837858	0.3918240684090839	0.2127850649351327	0.34169977746820784	0.534729046718323	0.3981004633814914	0.390168576425678	0.6024840007344836	0.6498686477739837	0.45934443431104677	0.5884754454818439	0.8767399810849084	0.44805052461512185	0.5890288975552087	0.9978216071290218	0.47388728575462274	0.6032451225714558	1.0159930856719768	0.429095521805226	0.6157722809216862	1.033083960363565	0.029925639257683	0.49895070081707676	0.3823597101997167	-0.041825079983239054	0.5538200777329061	0.6358825025880499	-0.06677688396534612	0.5545515214824401	0.8482042183375123	-0.041474640345370885	0.526396630636801	0.9406706496854356	-0.056513818212285134	0.5404057473637808	0.9701958333426653	-0.06496266177897034	0.55560035982267	0.9669874218006205
338	5.633333333333334	0.30233440528101047	0.5144544278161198	0.8626382529372977	0.27121454447969323	0.5277067999729328	1.2896286550490914	0.2689305762612409	0.5896725274234144	1.7396570742056068	0.264987634659404	0.3978363156575965	1.7570523313605233	0.3321254675742408	0.4222379877455065	1.7548640787752818	0.2383610065841711	0.6521065727759398	1.8118555543814707	0.0791110730945916	0.5129096041308934	0.8757774494196643	0.08639635910100084	0.5340664965783635	1.3012614380206429	0.09117496952234787	0.5532964079515454	1.735549637961648	0.12080855399727397	0.37110540445154205	1.7446954527704766	0.0619345415378309	0.39367421867722285	1.7406449595825488	0.11667621606689524	0.6131986083055014	1.8049450295822638	0.1903120619182516	0.5304507671956825	0.32117931161778984	0.19293705020577204	0.4122391583744454	0.055739483577185216	0.17265705979443002	0.3889759064099792	0.21273884276394842	0.34284318493794164	0.5312708117437598	0.398646664935718	0.39180686464451514	0.6029027183883527	0.6575635869636896	0.46225719342950905	0.5732413166291549	0.874379348408381	0.45185978858492115	0.5655470778164629	1.0004102768870466	0.48239742419418136	0.573829348162367	1.016615906434531	0.436956910401105	0.6005450939891213	1.0316238011386751	0.03126355380299647	0.500963878247621	0.3838212730052114	-0.04111573994360597	0.5532258946845136	0.6361005303757523	-0.06885987032809025	0.5514720970586252	0.8550773520627855	-0.045317687160716796	0.5268363117970604	0.9574693691307317	-0.06574639225309617	0.5279369779499705	0.9802855191069948	-0.06710523301359667	0.5437149298835304	0.9794185229339208
339	5.65	0.3004291529507969	0.5197619828879187	0.8643866629210882	0.2678089776664926	0.5171717032645785	1.2849121795773484	0.2687614129156281	0.5883518743919747	1.7392515810821796	0.2650724283542158	0.39785374237640514	1.757236723324336	0.3338645574821936	0.4166189661985396	1.7509083538583963	0.23864694695153243	0.6522575112687639	1.8138267044394907	0.07482383188517036	0.5187552205849698	0.8770663171988767	0.08644095489141759	0.534359118298728	1.3013021806119447	0.09115951174814244	0.5533593607259546	1.7355247896319634	0.12067379410401165	0.3711854896502746	1.744746639088207	0.06057811901953621	0.3937826877823467	1.740674981723099	0.11697180172445706	0.613768888285556	1.8066536011464633	0.1907632474390729	0.5304793866557602	0.3217955858507474	0.191315837070533	0.41565118302919135	0.05561218561479414	0.17201483270675444	0.3850739388571889	0.2120316016310591	0.34326298194333255	0.5297801381160457	0.3994591236608128	0.39413579775845364	0.602577743466841	0.6643730094564373	0.46260308611588874	0.5607551658488544	0.8722278646787291	0.4535423125327067	0.5476868523104041	1.004050901079416	0.48529693528010104	0.5559743486749288	1.0198955688169369	0.43998890863404533	0.5921833904500791	1.0307756471942133	0.03293401016552635	0.5020124270760237	0.3848479216975611	-0.03929896548863073	0.5509683904702392	0.6364973841008317	-0.07156264215970104	0.5444336360201041	0.8623772879896516	-0.051818686595143416	0.5188711690519281	0.9716379153902698	-0.07818437771798813	0.5026190155313237	0.9825679888332814	-0.0755393126393582	0.5311483632837256	0.9888344427650955
340	5.666666666666667	0.2986555936066896	0.5249235308636953	0.8662034279495953	0.26513235693023274	0.507089982303601	1.2806884489916464	0.26802084940786053	0.5847173390491325	1.7369372736685784	0.2651930514806892	0.3978166198290646	1.7577962772210467	0.33457888781951	0.41119341324825953	1.7471313821784293	0.2384786962808023	0.650333913290183	1.8151973971059032	0.071387210314264	0.5241179189491458	0.8773989243098238	0.08647298152295688	0.5348429959523026	1.3013681007554987	0.09119859775416962	0.5523671744981804	1.7354659755543689	0.12042325327921571	0.3712006095327494	1.7447973236348293	0.06003420810886685	0.393682149343411	1.740640389377915	0.11725651723160765	0.6145489427892482	1.8080868209034464	0.1923816657218884	0.5294784493231394	0.32184627556050843	0.19006698604704086	0.41822445454199464	0.05568513483985534	0.1714983396525663	0.3821961898202062	0.21120341204226795	0.3432409651381385	0.5296367242635199	0.40002806991641504	0.3967681882799561	0.599789591313333	0.6693950115229209	0.4628818566911652	0.5459426646925543	0.8704778448945931	0.4562522303171072	0.5311921930250595	1.0046245817933053	0.4863399570059411	0.5412297235613778	1.0219606964258738	0.44130019568652257	0.578773147931581	1.0280129435963457	0.03421590616821291	0.5024255052265725	0.3851589874853896	-0.03698246333867933	0.5473273796684657	0.6369524065539816	-0.07404052669792781	0.5304878173286328	0.8678451638329538	-0.06146100676356618	0.49669191729268897	0.9779140713418379	-0.09117147702937574	0.47102230087430197	0.9810737975534021	-0.09011837368023812	0.5183988577376147	0.9944358716924981
